<?xml version="1.0" encoding="UTF-8"?>
<svg id="Capa_2" data-name="Capa 2" xmlns="http://www.w3.org/2000/svg" viewBox="0 0 642.86 642.86">
  <defs>
    <style>
      .cls-1 {
        fill: #fff988;
      }

      .cls-2 {
        fill: #555233;
      }
    </style>
  </defs>
  <g id="Capa_1-2" data-name="Capa 1">
    <rect class="cls-1" width="642.86" height="642.86"/>
    <g>
      <g>
        <g id="_Repetición_radial_" data-name="&amp;lt;Repetición radial&amp;gt;">
          <path class="cls-2" d="M39.38,441.69c.87-1.83,1.85-4.08,2.98-5.87,1.55-2.84,3.03-5.77,4.5-8.64,2.02-4.04,4.93-10,6.9-13.97,20.01-40.77,41.44-81.4,89.24-93.04,23.16-5.69,48.51-2.76,69.19,9.43,29.06,17.01,41.52,49.74,27.27,81-24.05,48.65-93.92,38.36-137.96,31.59-15.28-1.96-30.7-3.27-46.11-2.3-5.34.17-10.72,1.53-16.01,1.81h0ZM40.39,441.07c.92-.45,1.33-.97,2.12-1.31,1.52-.54,3.1-1.08,4.67-1.51,7.61-2.23,15.47-3.63,23.35-4.47,30.87-3.56,62.34,2.18,93.12-1.29,18.03-2.06,38.02-6.1,50.59-19.93,10.78-12.21,12.73-31.83,4.3-45.72-7.75-12.92-22.06-20.79-36.56-23.87-24.64-5.3-50.17,3.4-68.85,19.86-19.11,16.66-32.88,37.84-49.73,56.83-5.65,6.5-11.64,12.92-18.28,18.49-1.4,1.27-3.3,1.54-4.75,2.93h0Z"/>
        </g>
        <g id="_Repetición_radial_-2" data-name="&amp;lt;Repetición radial&amp;gt;">
          <path class="cls-2" d="M36.95,207.03c1.91-.68,4.19-1.57,6.25-2.04,3.11-.91,6.22-1.93,9.3-2.93,4.28-1.43,10.56-3.58,14.76-5.01,42.97-14.68,86.85-28.26,128.89-2.69,20.4,12.36,36.25,32.35,42.26,55.59,8.52,32.58-5.82,64.53-37.99,76.56-51.41,17.39-93.54-39.28-119.9-75.21-9.41-12.19-19.4-24.02-30.97-34.23-3.89-3.66-8.66-6.49-12.6-10.04h0ZM38.11,207.3c.97.33,1.62.26,2.43.57,1.46.7,2.96,1.43,4.37,2.23,6.96,3.81,13.5,8.37,19.67,13.35,24.34,19.31,42.54,45.62,66.76,64.94,14.2,11.29,31.2,22.57,49.87,21.68,16.25-1.01,31.51-13.51,35.37-29.28,3.66-14.62-.9-30.3-8.97-42.73-13.67-21.17-37.88-33.08-62.73-34.64-25.29-1.73-50.01,3.51-75.35,5.02-8.59.6-17.36.91-26,.15-1.89-.09-3.42-1.24-5.42-1.29h0Z"/>
        </g>
        <g id="_Repetición_radial_-3" data-name="&amp;lt;Repetición radial&amp;gt;">
          <path class="cls-2" d="M201.16,39.38c1.83.87,4.08,1.85,5.87,2.98,2.84,1.55,5.77,3.03,8.64,4.5,4.04,2.02,10,4.93,13.97,6.9,40.77,20.01,81.4,41.44,93.04,89.24,5.69,23.16,2.76,48.51-9.43,69.19-17.01,29.06-49.74,41.52-81,27.27-48.65-24.05-38.36-93.92-31.59-137.96,1.96-15.28,3.27-30.7,2.3-46.11-.17-5.34-1.53-10.72-1.81-16.01h0ZM201.79,40.39c.45.92.97,1.33,1.31,2.12.54,1.52,1.08,3.1,1.51,4.67,2.23,7.61,3.63,15.47,4.47,23.35,3.56,30.87-2.18,62.34,1.29,93.12,2.06,18.03,6.1,38.02,19.93,50.59,12.21,10.78,31.83,12.73,45.72,4.3,12.92-7.75,20.79-22.06,23.87-36.56,5.3-24.64-3.4-50.17-19.86-68.85-16.66-19.11-37.84-32.88-56.83-49.73-6.5-5.65-12.92-11.64-18.49-18.28-1.27-1.4-1.54-3.3-2.93-4.75h0Z"/>
        </g>
        <g id="_Repetición_radial_-4" data-name="&amp;lt;Repetición radial&amp;gt;">
          <path class="cls-2" d="M435.83,36.95c.68,1.91,1.57,4.19,2.04,6.25.91,3.11,1.93,6.22,2.93,9.3,1.43,4.28,3.58,10.56,5.01,14.76,14.68,42.97,28.26,86.85,2.69,128.89-12.36,20.4-32.35,36.25-55.59,42.26-32.58,8.52-64.53-5.82-76.56-37.99-17.39-51.41,39.28-93.54,75.21-119.9,12.19-9.41,24.02-19.4,34.23-30.97,3.66-3.89,6.49-8.66,10.04-12.6h0ZM435.56,38.11c-.33.97-.26,1.62-.57,2.43-.7,1.46-1.43,2.96-2.23,4.37-3.81,6.96-8.37,13.5-13.35,19.67-19.31,24.34-45.62,42.54-64.94,66.76-11.29,14.2-22.57,31.2-21.68,49.87,1.01,16.25,13.51,31.51,29.28,35.37,14.62,3.66,30.3-.9,42.73-8.97,21.17-13.67,33.08-37.88,34.64-62.73,1.73-25.29-3.51-50.01-5.02-75.35-.6-8.59-.91-17.36-.15-26,.09-1.89,1.24-3.42,1.29-5.42h0Z"/>
        </g>
        <g id="_Repetición_radial_-5" data-name="&amp;lt;Repetición radial&amp;gt;">
          <path class="cls-2" d="M603.48,201.16c-.87,1.83-1.85,4.08-2.98,5.87-1.55,2.84-3.03,5.77-4.5,8.64-2.02,4.04-4.93,10-6.9,13.97-20.01,40.77-41.44,81.4-89.24,93.04-23.16,5.69-48.51,2.76-69.19-9.43-29.06-17.01-41.52-49.74-27.27-81,24.05-48.65,93.92-38.36,137.96-31.59,15.28,1.96,30.7,3.27,46.11,2.3,5.34-.17,10.72-1.53,16.01-1.81h0ZM602.47,201.79c-.92.45-1.33.97-2.12,1.31-1.52.54-3.1,1.08-4.67,1.51-7.61,2.23-15.47,3.63-23.35,4.47-30.87,3.56-62.34-2.18-93.12,1.29-18.03,2.06-38.02,6.1-50.59,19.93-10.78,12.21-12.73,31.83-4.3,45.72,7.75,12.92,22.06,20.79,36.56,23.87,24.64,5.3,50.17-3.4,68.85-19.86,19.11-16.66,32.88-37.84,49.73-56.83,5.65-6.5,11.64-12.92,18.28-18.49,1.4-1.27,3.3-1.54,4.75-2.93h0Z"/>
        </g>
        <g id="_Repetición_radial_-6" data-name="&amp;lt;Repetición radial&amp;gt;">
          <path class="cls-2" d="M605.91,435.83c-1.91.68-4.19,1.57-6.25,2.04-3.11.91-6.22,1.93-9.3,2.93-4.28,1.43-10.56,3.58-14.76,5.01-42.97,14.68-86.85,28.26-128.89,2.69-20.4-12.36-36.25-32.35-42.26-55.59-8.52-32.58,5.82-64.53,37.99-76.56,51.41-17.39,93.54,39.28,119.9,75.21,9.41,12.19,19.4,24.02,30.97,34.23,3.89,3.66,8.66,6.49,12.6,10.04h0ZM604.75,435.56c-.97-.33-1.62-.26-2.43-.57-1.46-.7-2.96-1.43-4.37-2.23-6.96-3.81-13.5-8.37-19.67-13.35-24.34-19.31-42.54-45.62-66.76-64.94-14.2-11.29-31.2-22.57-49.87-21.68-16.25,1.01-31.51,13.51-35.37,29.28-3.66,14.62.9,30.3,8.97,42.73,13.67,21.17,37.88,33.08,62.73,34.64,25.29,1.73,50.01-3.51,75.35-5.02,8.59-.6,17.36-.91,26-.15,1.89.09,3.42,1.24,5.42,1.29h0Z"/>
        </g>
        <g id="_Repetición_radial_-7" data-name="&amp;lt;Repetición radial&amp;gt;">
          <path class="cls-2" d="M441.69,603.48c-1.83-.87-4.08-1.85-5.87-2.98-2.84-1.55-5.77-3.03-8.64-4.5-4.04-2.02-10-4.93-13.97-6.9-40.77-20.01-81.4-41.44-93.04-89.24-5.69-23.16-2.76-48.51,9.43-69.19,17.01-29.06,49.74-41.52,81-27.27,48.65,24.05,38.36,93.92,31.59,137.96-1.96,15.28-3.27,30.7-2.3,46.11.17,5.34,1.53,10.72,1.81,16.01h0ZM441.07,602.47c-.45-.92-.97-1.33-1.31-2.12-.54-1.52-1.08-3.1-1.51-4.67-2.23-7.61-3.63-15.47-4.47-23.35-3.56-30.87,2.18-62.34-1.29-93.12-2.06-18.03-6.1-38.02-19.93-50.59-12.21-10.78-31.83-12.73-45.72-4.3-12.92,7.75-20.79,22.06-23.87,36.56-5.3,24.64,3.4,50.17,19.86,68.85,16.66,19.11,37.84,32.88,56.83,49.73,6.5,5.65,12.92,11.64,18.49,18.28,1.27,1.4,1.54,3.3,2.93,4.75h0Z"/>
        </g>
        <g id="_Repetición_radial_-8" data-name="&amp;lt;Repetición radial&amp;gt;">
          <path class="cls-2" d="M207.03,605.91c-.68-1.91-1.57-4.19-2.04-6.25-.91-3.11-1.93-6.22-2.93-9.3-1.43-4.28-3.58-10.56-5.01-14.76-14.68-42.97-28.26-86.85-2.69-128.89,12.36-20.4,32.35-36.25,55.59-42.26,32.58-8.52,64.53,5.82,76.56,37.99,17.39,51.41-39.28,93.54-75.21,119.9-12.19,9.41-24.02,19.4-34.23,30.97-3.66,3.89-6.49,8.66-10.04,12.6h0ZM207.3,604.75c.33-.97.26-1.62.57-2.43.7-1.46,1.43-2.96,2.23-4.37,3.81-6.96,8.37-13.5,13.35-19.67,19.31-24.34,45.62-42.54,64.94-66.76,11.29-14.2,22.57-31.2,21.68-49.87-1.01-16.25-13.51-31.51-29.28-35.37-14.62-3.66-30.3.9-42.73,8.97-21.17,13.67-33.08,37.88-34.64,62.73-1.73,25.29,3.51,50.01,5.02,75.35.6,8.59.91,17.36.15,26-.09,1.89-1.24,3.42-1.29,5.42h0Z"/>
        </g>
      </g>
      <path class="cls-2" d="M346.29,257.47c39.03,15.1,54.34,49.74,39.24,88.76-15.1,39.03-49.74,54.34-88.76,39.24-39.03-15.1-54.34-49.74-39.24-88.76,15.1-39.03,49.74-54.34,88.76-39.24Z"/>
    </g>
  </g>
</svg>