<?xml version="1.0" encoding="UTF-8"?>
<svg id="Capa_2" data-name="Capa 2" xmlns="http://www.w3.org/2000/svg" viewBox="0 0 618.15 216.04">
  <defs>
    <style>
      .cls-1 {
        font-family: FuturaStd-Light, 'Futura Std';
        font-size: 37.46px;
        font-weight: 300;
      }

      .cls-1, .cls-2 {
        fill: #555233;
      }
    </style>
  </defs>
  <g id="Capa_1-2" data-name="Capa 1">
    <g>
      <g>
        <g id="_Repetición_radial_" data-name="&amp;lt;Repetición radial&amp;gt;">
          <path class="cls-2" d="M.88,146.87c.32-.66.67-1.48,1.08-2.13.56-1.03,1.1-2.09,1.63-3.14.73-1.46,1.79-3.63,2.5-5.07,7.26-14.79,15.04-29.54,32.38-33.76,8.41-2.06,17.6-1,25.11,3.42,10.54,6.17,15.07,18.05,9.9,29.39-8.73,17.65-34.08,13.92-50.06,11.46-5.54-.71-11.14-1.19-16.73-.84-1.94.06-3.89.56-5.81.66h0ZM1.25,146.64c.33-.16.48-.35.77-.48.55-.2,1.13-.39,1.69-.55,2.76-.81,5.61-1.32,8.47-1.62,11.2-1.29,22.62.79,33.79-.47,6.54-.75,13.8-2.21,18.36-7.23,3.91-4.43,4.62-11.55,1.56-16.59-2.81-4.69-8.01-7.54-13.27-8.66-8.94-1.92-18.21,1.23-24.98,7.21-6.93,6.04-11.93,13.73-18.05,20.62-2.05,2.36-4.22,4.69-6.63,6.71-.51.46-1.2.56-1.72,1.06h0Z"/>
        </g>
        <g id="_Repetición_radial_-2" data-name="&amp;lt;Repetición radial&amp;gt;">
          <path class="cls-2" d="M0,61.72c.69-.25,1.52-.57,2.27-.74,1.13-.33,2.26-.7,3.37-1.06,1.55-.52,3.83-1.3,5.35-1.82,15.59-5.33,31.52-10.25,46.77-.98,7.4,4.48,13.15,11.74,15.33,20.17,3.09,11.82-2.11,23.42-13.79,27.78-18.65,6.31-33.94-14.25-43.51-27.29-3.42-4.42-7.04-8.72-11.24-12.42-1.41-1.33-3.14-2.36-4.57-3.64h0ZM.42,61.82c.35.12.59.09.88.21.53.25,1.07.52,1.59.81,2.53,1.38,4.9,3.04,7.14,4.84,8.83,7.01,15.44,16.56,24.23,23.56,5.15,4.1,11.32,8.19,18.1,7.87,5.9-.37,11.43-4.9,12.83-10.63,1.33-5.3-.33-10.99-3.26-15.51-4.96-7.68-13.75-12-22.76-12.57-9.18-.63-18.15,1.27-27.34,1.82-3.12.22-6.3.33-9.43.06-.69-.03-1.24-.45-1.97-.47H.42Z"/>
        </g>
        <g id="_Repetición_radial_-3" data-name="&amp;lt;Repetición radial&amp;gt;">
          <path class="cls-2" d="M59.59.88c.66.32,1.48.67,2.13,1.08,1.03.56,2.09,1.1,3.14,1.63,1.46.73,3.63,1.79,5.07,2.5,14.79,7.26,29.54,15.04,33.76,32.38,2.06,8.41,1,17.6-3.42,25.11-6.17,10.54-18.05,15.07-29.39,9.9-17.65-8.73-13.92-34.08-11.46-50.06.71-5.54,1.19-11.14.84-16.73-.06-1.94-.56-3.89-.66-5.81h0ZM59.82,1.25c.16.33.35.48.48.77.2.55.39,1.13.55,1.69.81,2.76,1.32,5.61,1.62,8.47,1.29,11.2-.79,22.62.47,33.79.75,6.54,2.21,13.8,7.23,18.36,4.43,3.91,11.55,4.62,16.59,1.56,4.69-2.81,7.54-8.01,8.66-13.27,1.92-8.94-1.23-18.21-7.21-24.98-6.04-6.93-13.73-11.93-20.62-18.05-2.36-2.05-4.69-4.22-6.71-6.63-.46-.51-.56-1.2-1.06-1.72h0Z"/>
        </g>
        <g id="_Repetición_radial_-4" data-name="&amp;lt;Repetición radial&amp;gt;">
          <path class="cls-2" d="M144.74,0c.25.69.57,1.52.74,2.27.33,1.13.7,2.26,1.06,3.37.52,1.55,1.3,3.83,1.82,5.35,5.33,15.59,10.25,31.52.98,46.77-4.48,7.4-11.74,13.15-20.17,15.33-11.82,3.09-23.42-2.11-27.78-13.79-6.31-18.65,14.25-33.94,27.29-43.51,4.42-3.42,8.72-7.04,12.42-11.24,1.33-1.41,2.36-3.14,3.64-4.57h0ZM144.64.42c-.12.35-.09.59-.21.88-.25.53-.52,1.07-.81,1.59-1.38,2.53-3.04,4.9-4.84,7.14-7.01,8.83-16.56,15.44-23.56,24.23-4.1,5.15-8.19,11.32-7.87,18.1.37,5.9,4.9,11.43,10.63,12.83,5.3,1.33,10.99-.33,15.51-3.26,7.68-4.96,12-13.75,12.57-22.76.63-9.18-1.27-18.15-1.82-27.34-.22-3.12-.33-6.3-.06-9.43.03-.69.45-1.24.47-1.97h0Z"/>
        </g>
        <g id="_Repetición_radial_-5" data-name="&amp;lt;Repetición radial&amp;gt;">
          <path class="cls-2" d="M205.58,59.59c-.32.66-.67,1.48-1.08,2.13-.56,1.03-1.1,2.09-1.63,3.14-.73,1.46-1.79,3.63-2.5,5.07-7.26,14.79-15.04,29.54-32.38,33.76-8.41,2.06-17.6,1-25.11-3.42-10.54-6.17-15.07-18.05-9.9-29.39,8.73-17.65,34.08-13.92,50.06-11.46,5.54.71,11.14,1.19,16.73.84,1.94-.06,3.89-.56,5.81-.66h0ZM205.21,59.82c-.33.16-.48.35-.77.48-.55.2-1.13.39-1.69.55-2.76.81-5.61,1.32-8.47,1.62-11.2,1.29-22.62-.79-33.79.47-6.54.75-13.8,2.21-18.36,7.23-3.91,4.43-4.62,11.55-1.56,16.59,2.81,4.69,8.01,7.54,13.27,8.66,8.94,1.92,18.21-1.23,24.98-7.21,6.93-6.04,11.93-13.73,18.05-20.62,2.05-2.36,4.22-4.69,6.63-6.71.51-.46,1.2-.56,1.72-1.06h0Z"/>
        </g>
        <g id="_Repetición_radial_-6" data-name="&amp;lt;Repetición radial&amp;gt;">
          <path class="cls-2" d="M206.46,144.74c-.69.25-1.52.57-2.27.74-1.13.33-2.26.7-3.37,1.06-1.55.52-3.83,1.3-5.35,1.82-15.59,5.33-31.52,10.25-46.77.98-7.4-4.48-13.15-11.74-15.33-20.17-3.09-11.82,2.11-23.42,13.79-27.78,18.65-6.31,33.94,14.25,43.51,27.29,3.42,4.42,7.04,8.72,11.24,12.42,1.41,1.33,3.14,2.36,4.57,3.64h0ZM206.04,144.64c-.35-.12-.59-.09-.88-.21-.53-.25-1.07-.52-1.59-.81-2.53-1.38-4.9-3.04-7.14-4.84-8.83-7.01-15.44-16.56-24.23-23.56-5.15-4.1-11.32-8.19-18.1-7.87-5.9.37-11.43,4.9-12.83,10.63-1.33,5.3.33,10.99,3.26,15.51,4.96,7.68,13.75,12,22.76,12.57,9.18.63,18.15-1.27,27.34-1.82,3.12-.22,6.3-.33,9.43-.06.69.03,1.24.45,1.97.47h0Z"/>
        </g>
        <g id="_Repetición_radial_-7" data-name="&amp;lt;Repetición radial&amp;gt;">
          <path class="cls-2" d="M146.87,205.58c-.66-.32-1.48-.67-2.13-1.08-1.03-.56-2.09-1.1-3.14-1.63-1.46-.73-3.63-1.79-5.07-2.5-14.79-7.26-29.54-15.04-33.76-32.38-2.06-8.41-1-17.6,3.42-25.11,6.17-10.54,18.05-15.07,29.39-9.9,17.65,8.73,13.92,34.08,11.46,50.06-.71,5.54-1.19,11.14-.84,16.73.06,1.94.56,3.89.66,5.81h0ZM146.64,205.21c-.16-.33-.35-.48-.48-.77-.2-.55-.39-1.13-.55-1.69-.81-2.76-1.32-5.61-1.62-8.47-1.29-11.2.79-22.62-.47-33.79-.75-6.54-2.21-13.8-7.23-18.36-4.43-3.91-11.55-4.62-16.59-1.56-4.69,2.81-7.54,8.01-8.66,13.27-1.92,8.94,1.23,18.21,7.21,24.98,6.04,6.93,13.73,11.93,20.62,18.05,2.36,2.05,4.69,4.22,6.71,6.63.46.51.56,1.2,1.06,1.72h0Z"/>
        </g>
        <g id="_Repetición_radial_-8" data-name="&amp;lt;Repetición radial&amp;gt;">
          <path class="cls-2" d="M61.72,206.46c-.25-.69-.57-1.52-.74-2.27-.33-1.13-.7-2.26-1.06-3.37-.52-1.55-1.3-3.83-1.82-5.35-5.33-15.59-10.25-31.52-.98-46.77,4.48-7.4,11.74-13.15,20.17-15.33,11.82-3.09,23.42,2.11,27.78,13.79,6.31,18.65-14.25,33.94-27.29,43.51-4.42,3.42-8.72,7.04-12.42,11.24-1.33,1.41-2.36,3.14-3.64,4.57h0ZM61.82,206.04c.12-.35.09-.59.21-.88.25-.53.52-1.07.81-1.59,1.38-2.53,3.04-4.9,4.84-7.14,7.01-8.83,16.56-15.44,23.56-24.23,4.1-5.15,8.19-11.32,7.87-18.1-.37-5.9-4.9-11.43-10.63-12.83-5.3-1.33-10.99.33-15.51,3.26-7.68,4.96-12,13.75-12.57,22.76-.63,9.18,1.27,18.15,1.82,27.34.22,3.12.33,6.3.06,9.43-.03.69-.45,1.24-.47,1.97h0Z"/>
        </g>
      </g>
      <path class="cls-2" d="M112.25,80.02c14.16,5.48,19.72,18.05,14.24,32.21s-18.05,19.72-32.21,14.24c-14.16-5.48-19.72-18.05-14.24-32.21,5.48-14.16,18.05-19.72,32.21-14.24Z"/>
    </g>
    <g>
      <path class="cls-2" d="M275.91,60.32c21.3,0,26.75,8.35,27.1,16.19.17,9.71-7.5,13.8-21.13,18.74-15.17,5.45-34.08,13.8-29.82,27.78,1.87,6.3,7.33,9.54,13.63,9.54,7.5,0,15.85-4.6,20.11-14.14,5.45-11.08,2.73-23.52,10.91-24.37,5.96-.51,8.18,6.3,10.91,14.14l13.29,39.19h-17.38l-11.42-33.74c-.85-2.73-1.36-4.09-1.53-4.09-.51,0-.85,2.73-2.39,8.18-2.39,9.71-5.28,31.53-26.58,31.53-15.34,0-22.83-11.59-22.66-22.15,0-13.46,12.44-20.28,19.77-23.86,21.98-10.57,27.27-19.6,26.24-28.29-.85-8.86-8.18-12.78-15.34-12.78-1.7,0-3.41.34-4.94.68-12.78,3.24-14.48,18.57-6.82,26.41-2.39,1.87-5.62,3.07-8.69,3.07-5.79,0-11.59-3.58-11.76-11.59-.51-17.55,26.07-20.45,38.51-20.45Z"/>
      <path class="cls-2" d="M574.41,62.8c20.71,0,26.01,8.12,26.34,15.74.17,9.44-7.29,13.42-20.54,18.22-14.74,5.3-33.13,13.42-28.99,27,1.82,6.13,7.12,9.28,13.25,9.28,7.29,0,15.41-4.47,19.55-13.75,5.3-10.77,2.65-22.86,10.6-23.69,5.8-.5,7.95,6.13,10.6,13.75l12.92,38.1h-16.9l-11.1-32.8c-.83-2.65-1.33-3.98-1.49-3.98-.5,0-.83,2.65-2.32,7.95-2.32,9.44-5.14,30.64-25.84,30.64-14.91,0-22.2-11.26-22.03-21.53,0-13.09,12.09-19.71,19.21-23.19,21.37-10.27,26.5-19.05,25.51-27.5-.83-8.61-7.95-12.42-14.91-12.42-1.66,0-3.31.33-4.8.66-12.42,3.15-14.08,18.06-6.63,25.68-2.32,1.82-5.47,2.98-8.45,2.98-5.63,0-11.26-3.48-11.43-11.26-.5-17.06,25.34-19.88,37.44-19.88Z"/>
      <path class="cls-2" d="M508.6,31.5h16.23v115.95h-16.23V31.5Z"/>
      <path class="cls-2" d="M336.83,64.63h16.23v22.2c2.48-13.25,8.78-24.02,21.37-24.02,6.34,0,11.3,2.85,15.56,10.24,2.73,4.73,4.41,9.99,5.17,15.4,2.29,16.35,10.18,37.52,21.02,59h-17.06c-10.45-16.99-16.41-37-19.71-57.64-.25-1.58-.63-3.13-1.19-4.63-2.32-6.21-6.27-13.27-12.39-13.27-9.11,0-12.75,15.41-12.75,30.81-.08,18.58,1.07,33.93,3.98,44.72h-20.22v-82.82Z"/>
      <path class="cls-2" d="M456.67,147.06c-23.36,0-41.41-17.23-41.41-43.9s16.07-43.56,38.6-43.56c16.4,0,32.47,9.11,35.61,26.34,1.82,10.77-2.98,16.23-13.42,16.23-2.32,0-4.97-.33-7.79-.83-3.31-.66-6.29-.83-8.95-.83-13.75,0-20.71,7.29-20.71,18.06,0,15.07,13.25,23.02,27.17,22.36,12.26-.5,20.87-7.29,25.18-19.88h1.66c-6.13,20.37-22.69,26.01-35.95,26.01ZM441.1,101.01c2.32-2.65,5.14-4.14,9.11-4.14,2.15,0,4.47.33,7.29,1.33,2.48.83,4.8,1.16,6.79,1.16,7.12,0,10.44-5.13,8.94-14.25-2.48-14.08-13.91-23.02-25.01-23.02-1.66,0-3.31.17-4.97.66-13.91,3.81-17.23,22.53-11.76,43.4.99,4.14,2.32,8.12,3.98,11.6,1.16,2.65,1.82,2.32,1.66-.5-.5-4.97-.33-11.43,3.98-16.23Z"/>
    </g>
    <text class="cls-1" transform="translate(304.57 204.73)"><tspan x="0" y="0" xml:space="preserve"> nails &amp; beauty </tspan></text>
  </g>
</svg>